<?xml version="1.0" encoding="utf-8"?>
<!-- Generator: Adobe Illustrator 24.3.0, SVG Export Plug-In . SVG Version: 6.00 Build 0)  -->
<svg version="1.1"
	 id="svg4843" inkscape:version="0.48.2 r9819" sodipodi:docname="drawing.svg" xmlns:cc="http://creativecommons.org/ns#" xmlns:dc="http://purl.org/dc/elements/1.1/" xmlns:inkscape="http://www.inkscape.org/namespaces/inkscape" xmlns:rdf="http://www.w3.org/1999/02/22-rdf-syntax-ns#" xmlns:sodipodi="http://sodipodi.sourceforge.net/DTD/sodipodi-0.dtd" xmlns:svg="http://www.w3.org/2000/svg"
	 xmlns="http://www.w3.org/2000/svg" xmlns:xlink="http://www.w3.org/1999/xlink" x="0px" y="0px" viewBox="0 0 512 512"
	 style="enable-background:new 0 0 512 512;" xml:space="preserve">
<style type="text/css">
	.st0{fill:#0E0D0F;}
	.st1{fill:url(#path4460_1_);}
	.st2{fill:url(#path4458_1_);}
	.st3{fill:url(#path4456_1_);}
</style>
<sodipodi:namedview  bordercolor="#666666" borderopacity="1.0" fit-margin-bottom="0.5" fit-margin-left="0.5" fit-margin-right="0.5" fit-margin-top="0.5" id="base" inkscape:current-layer="g4585" inkscape:cx="1010.9794" inkscape:cy="-454.71711" inkscape:document-units="px" inkscape:pageopacity="0.0" inkscape:pageshadow="2" inkscape:window-height="1028" inkscape:window-maximized="1" inkscape:window-width="1920" inkscape:window-x="-8" inkscape:window-y="-8" inkscape:zoom="0.35" pagecolor="#ffffff" showgrid="false">
	</sodipodi:namedview>
<g>
	<g id="g3625">
		<g id="g3631" transform="translate(755.0571,42.0247)">
			<path id="path3633" inkscape:connector-curvature="0" class="st0" d="M-243.69,230.26c0,2.24-1.54,3.79-3.79,3.79
				c-2.1,0-3.79-1.54-3.79-3.79c0-2.24,1.68-3.79,3.79-3.79C-245.37,226.33-243.69,228.02-243.69,230.26 M-243.13,230.26
				c0-2.52-1.96-4.49-4.49-4.49c-2.38,0-4.49,1.96-4.49,4.49c0,2.52,1.96,4.49,4.49,4.49
				C-245.09,234.61-243.13,232.64-243.13,230.26"/>
		</g>
		<g id="g3635" transform="translate(754.3766,42.2633)">
			<path id="path3637" inkscape:connector-curvature="0" class="st0" d="M-246.07,228.95c0,0.7-0.56,0.7-1.12,0.7h-0.42v-1.4h0.7
				C-246.21,228.25-246.07,228.53-246.07,228.95 M-244.95,232.18l-1.12-1.54c-0.14-0.28-0.28-0.42-0.56-0.56
				c0.84-0.14,1.26-0.56,1.26-1.12c0-0.7-0.42-1.26-1.4-1.26h-1.54v4.63h0.7v-2.1c0.42,0,0.56,0.14,0.7,0.42l1.12,1.68h0.84V232.18z
				"/>
		</g>
	</g>
	<g id="g3719" transform="translate(1678.0568,77.434471)">
		<path id="path3721" inkscape:connector-curvature="0" class="st0" d="M-1546.77,160.08l-8.42,19.64h16.97L-1546.77,160.08z
			 M-1520.97,199.21h-9.12l-5.05-11.92h-23.28l-5.05,11.92h-8.84l21.6-49.51h7.99C-1542.57,149.7-1520.97,199.21-1520.97,199.21z"/>
	</g>
	<g id="g3723" transform="translate(1702.2941,68.429171)">
		<path id="path3725" inkscape:connector-curvature="0" class="st0" d="M-1465.49,208.21h-8.7v-41.23h-15.57v-7.99h40.67l-3.37,7.99
			h-12.9v41.23H-1465.49z"/>
	</g>
	<g id="g3727" transform="translate(1740.2972,77.886371)">
		<path id="path3729" inkscape:connector-curvature="0" class="st0" d="M-1337.99,157.6h-26.37v12.48h16.83v7.71h-16.83v13.04h26.37
			v7.85h-35.06v-49.23h35.06V157.6z"/>
	</g>
	<path id="path3731" inkscape:connector-curvature="0" class="st0" d="M464.02,276.74h-8.27v-49.23h8.27V276.74z"/>
	<g id="g3741" transform="translate(736.1471,50.6673)">
		<path id="path3743" inkscape:connector-curvature="0" class="st0" d="M-307.12,183.95c-5.05,0-9.26,1.54-9.26,4.91
			c0,3.93,2.38,5.19,11.64,8.27c10.24,3.37,15.71,6.73,15.57,15.15c0,9.4-7.29,14.73-17.81,14.73c-7.43,0-14.17-2.38-19.35-6.87
			l3.23-7.71c4.63,3.93,10.24,6.59,16.41,6.73c5.33,0,9.12-2.52,9.12-6.45c0-3.23-1.82-5.33-10.8-8.13
			c-10.24-3.37-16.55-6.87-16.41-15.29c0-8.27,7.85-13.04,17.67-13.04c9.82,0,15.43,3.65,16.27,4.07l-3.09,7.01
			C-296.18,186.05-300.53,183.95-307.12,183.95"/>
	</g>
	<g id="g3745" transform="translate(746.6359,46.8288)">
		<path id="path3747" inkscape:connector-curvature="0" class="st0" d="M-271.9,204.42l22.02-23.84h-10.52l-22.02,23.84l24.26,25.39
			h10.66L-271.9,204.42z"/>
	</g>
	<g id="g3749" transform="translate(701.8704,42.6286)">
		<path id="path3751" inkscape:connector-curvature="0" class="st0" d="M-422.04,227c-9.68,0-16.69-7.85-16.69-17.53
			s7.01-17.53,16.69-17.53c9.68,0,16.69,7.85,16.69,17.53S-412.36,227-422.04,227 M-422.04,184.08c-14.03,0-25.39,11.36-25.39,25.39
			c0,14.03,11.36,25.39,25.39,25.39c14.03,0,25.39-11.36,25.39-25.39C-396.65,195.44-408.02,184.08-422.04,184.08"/>
	</g>
	<g id="g3753" transform="translate(714.0898,42.8078)">
		<path id="path3755" inkscape:connector-curvature="0" class="st0" d="M-381.08,226.09h-9.96v-33.24h9.96
			c9.68,0,16.69,6.87,16.69,16.55S-371.4,226.09-381.08,226.09 M-381.08,184.71h-18.65v49.23h18.65c14.03,0,25.39-10.66,25.39-24.68
			C-355.69,195.23-367.05,184.71-381.08,184.71"/>
	</g>
	<g id="g3757" transform="translate(684.2415,46.0058)">
		<path id="path3759" inkscape:connector-curvature="0" class="st0" d="M-481.17,208.86c0,14.73-8.56,22.58-21.04,22.58
			c-12.48,0-21.04-7.85-21.04-22.58v-27.35h8.7v28.47c0,8.56,5.05,13.6,12.34,13.6c7.29,0,12.34-5.05,12.34-13.6v-28.47h8.7V208.86z
			"/>
	</g>
	
		<linearGradient id="path4460_1_" gradientUnits="userSpaceOnUse" x1="1874.1632" y1="1484.4161" x2="2153.7988" y2="1428.6992" gradientTransform="matrix(0.1741 0 0 0.1741 -319.2124 27.2609)">
		<stop  offset="0" style="stop-color:#2B7A77"/>
		<stop  offset="0.5105" style="stop-color:#4EBAA9"/>
		<stop  offset="1" style="stop-color:#5CC2B1"/>
	</linearGradient>
	<path id="path4460" inkscape:connector-curvature="0" sodipodi:nodetypes="ccccccccc" class="st1" d="M16.76,298.62
		c-2.38,0-3.65-0.98-4.91-3.09L0.77,275.05c-0.7-1.4-0.84-1.96-0.84-2.95l17.39,0.7l3.93,3.93h34.78l-28.89,17.95
		C25.88,295.53,20.55,298.62,16.76,298.62z"/>
	
		<linearGradient id="path4458_1_" gradientUnits="userSpaceOnUse" x1="2024.3179" y1="1109.853" x2="1885.5513" y2="1435.7441" gradientTransform="matrix(0.1741 0 0 0.1741 -319.2124 27.2609)">
		<stop  offset="0" style="stop-color:#236736"/>
		<stop  offset="0.4928" style="stop-color:#6BA443"/>
		<stop  offset="1" style="stop-color:#86C146"/>
	</linearGradient>
	<path id="path4458" inkscape:connector-curvature="0" sodipodi:nodetypes="cccccccccccccc" class="st2" d="M21.39,276.74H6.38
		c-4.49,0-6.31-2.38-6.31-4.77c0-1.54,0.42-2.24,1.12-3.93l21.88-52.17l0.28-0.42l0.28-0.42l0.56-0.56l0.98-0.56l1.4-0.28h2.24
		l15.15,5.61l-5.19,16.27L21.39,276.74z"/>
	
		<linearGradient id="path4456_1_" gradientUnits="userSpaceOnUse" x1="2055.2422" y1="1078.7981" x2="2259.187" y2="1564.481" gradientTransform="matrix(0.1741 0 0 0.1741 -319.2124 27.2609)">
		<stop  offset="0" style="stop-color:#29A5E3"/>
		<stop  offset="0.5155" style="stop-color:#356EB9"/>
		<stop  offset="1" style="stop-color:#394DA5"/>
	</linearGradient>
	<path id="path4456" inkscape:connector-curvature="0" sodipodi:nodetypes="ccccccccc" class="st3" d="M65.43,298.62l-34.5-81.77
		c-0.56-1.4-1.54-3.23-4.07-3.23c-2.24,0-3.23,1.12-3.79,2.24c0.28-0.84,1.26-2.38,3.93-2.38h23.84c2.24,0,3.23,1.26,3.79,2.52
		l34.92,82.61H65.43z"/>
</g>
</svg>
