<?xml version="1.0" encoding="utf-8"?>
<!-- Generator: Adobe Illustrator 19.0.0, SVG Export Plug-In . SVG Version: 6.00 Build 0)  -->
<svg version="1.1" id="Ñëîé_1" xmlns="http://www.w3.org/2000/svg" xmlns:xlink="http://www.w3.org/1999/xlink" x="0px" y="0px"
	 viewBox="0 0 500 500" style="enable-background:new 0 0 500 500;" xml:space="preserve">
<style type="text/css">
	.st0{fill:#365EBF;}
</style>
<g id="Intuit_Logo_5_">
	<g id="XMLID_2_">
		<g id="XMLID_3_">
			<g id="XMLID_4_">
				<path id="XMLID_12_" class="st0" d="M313.5,302.2h-9.8c-2,0-3.5-1.1-3.7-3l-0.2-3.8c-7,5.7-15.4,8.7-24.3,8.7
					c-17.1,0-24.1-10.8-24.1-27.3v-45.2c0-2.6,1.5-3.5,4-3.5h10.7c2.4,0,3.8,0.8,3.8,3.5v41.9c0,8.4,2.1,14.2,11.3,14.2
					c5.8,0,13.1-3.2,17.7-7.3v-48.8c0-2.6,1.4-3.5,3.8-3.5h10.8c2.4,0,3.8,0.8,3.8,3.5v66.4C317.4,301.1,316.5,302.2,313.5,302.2z"
					/>
			</g>
		</g>
		<path id="XMLID_11_" class="st0" d="M65,231.1c0-1.8,0.9-3,2.7-3h12.9c1.8,0,2.9,1.1,2.9,3v67.3c0,2.7-1.2,3.8-3.8,3.8H69
			c-2.7,0-4-1.1-4-3.8V231.1z"/>
		<path id="XMLID_10_" class="st0" d="M336.5,231.1c0-1.8,0.9-3,2.7-3h12.9c1.8,0,2.9,1.1,2.9,3v67.3c0,2.7-1.2,3.8-3.8,3.8h-10.8
			c-2.7,0-4-1.1-4-3.8V231.1z"/>
		<path id="XMLID_9_" class="st0" d="M165.4,302.2h-11c-2.7,0-3.7-1.4-3.7-4v-41.5c0-8.4-2.3-14.3-11.6-14.3c-6,0-13.3,3.2-18,7.3
			v48.7c0,2.6-1.1,3.8-3.7,3.8h-11.1c-2.3,0-3.7-1.2-3.7-3.7v-66.7c0-2.4,1.1-3.8,3.8-3.8h9.9c2.1,0,3.5,0.6,3.7,2.9l0.2,4.1
			c7-5.6,15.9-8.8,24.7-8.8c17.1,0,24.1,10.7,24.1,27.3v44.7C169.1,300.8,168.2,302.2,165.4,302.2z"/>
		<g id="XMLID_5_">
			<g id="XMLID_6_">
				<path id="XMLID_8_" class="st0" d="M219.8,207.2c0-6.2-5-11.2-11.2-11.2c-6.2,0-11.2,5-11.2,11.2c0,6.2,5,11.2,11.2,11.2
					C214.8,218.4,219.8,213.4,219.8,207.2z"/>
			</g>
			<path id="XMLID_7_" class="st0" d="M235.7,228c1.8,0,2.9,0.6,2.9,2.6v10.8c0,1.8-1.2,2.9-3.1,2.9h-17.7v54.1c0,2.7-1.2,3.8-4,3.8
				h-10.6c-2.7,0-4-1.1-4-3.8v-54.1h-17.7c-1.8,0-3.1-1.1-3.1-2.9v-10.8c0-2,1.1-2.6,2.9-2.6H235.7z"/>
		</g>
		<g id="XMLID_13_">
			<g id="XMLID_14_">
				<path id="XMLID_15_" class="st0" d="M409.3,207.2c0-6.2-5-11.2-11.2-11.2c-6.2,0-11.2,5-11.2,11.2c0,6.2,5,11.2,11.2,11.2
					C404.3,218.4,409.3,213.4,409.3,207.2z"/>
			</g>
			<path id="XMLID_16_" class="st0" d="M425.2,228c1.8,0,2.9,0.6,2.9,2.6v10.8c0,1.8-1.2,2.9-3.1,2.9h-17.7v54.1
				c0,2.7-1.2,3.8-4,3.8h-10.6c-2.7,0-4-1.1-4-3.8l0-54.1h-17.7c-1.8,0-3.1-1.1-3.1-2.9v-10.8c0-2,1.1-2.6,2.9-2.6H425.2z"/>
		</g>
	</g>
	<g id="XMLID_17_">
		<path class="st0" d="M430,292.8c2.7,0,5,2.1,5,4.9c0,2.8-2.3,5-5,5c-2.7,0-5-2.1-5-5C425.1,294.9,427.3,292.8,430,292.8z
			 M430,301.9c2.3,0,4.1-1.8,4.1-4.2c0-2.4-1.8-4.2-4.1-4.2c-2.3,0-4.1,1.8-4.1,4.2C426,300.1,427.7,301.9,430,301.9z M428.1,294.8
			h2.2c1.4,0,2,0.5,2,1.7c0,1-0.7,1.5-1.5,1.6l1.7,2.6h-1l-1.6-2.5h-1v2.5h-0.9L428.1,294.8L428.1,294.8z M429,297.4h0.9
			c0.8,0,1.5,0,1.5-0.9c0-0.8-0.7-0.9-1.3-0.9H429L429,297.4L429,297.4z"/>
	</g>
</g>
</svg>
