<svg id="visual" viewBox="0 0 1080 300" width="1080" height="300" xmlns="http://www.w3.org/2000/svg" xmlns:xlink="http://www.w3.org/1999/xlink" version="1.1"><rect x="0" y="0" width="1080" height="300" fill="#f3f5f5"></rect><path d="M0 218L11.3 218.7C22.7 219.3 45.3 220.7 67.8 228.2C90.3 235.7 112.7 249.3 135.2 252.3C157.7 255.3 180.3 247.7 202.8 244C225.3 240.3 247.7 240.7 270.2 245.2C292.7 249.7 315.3 258.3 337.8 254.2C360.3 250 382.7 233 405.2 230C427.7 227 450.3 238 472.8 246.3C495.3 254.7 517.7 260.3 540.2 253.7C562.7 247 585.3 228 607.8 219.3C630.3 210.7 652.7 212.3 675.2 216.7C697.7 221 720.3 228 742.8 233C765.3 238 787.7 241 810.2 245C832.7 249 855.3 254 877.8 256.5C900.3 259 922.7 259 945.2 253.3C967.7 247.7 990.3 236.3 1012.8 229C1035.3 221.7 1057.7 218.3 1068.8 216.7L1080 215L1080 301L1068.8 301C1057.7 301 1035.3 301 1012.8 301C990.3 301 967.7 301 945.2 301C922.7 301 900.3 301 877.8 301C855.3 301 832.7 301 810.2 301C787.7 301 765.3 301 742.8 301C720.3 301 697.7 301 675.2 301C652.7 301 630.3 301 607.8 301C585.3 301 562.7 301 540.2 301C517.7 301 495.3 301 472.8 301C450.3 301 427.7 301 405.2 301C382.7 301 360.3 301 337.8 301C315.3 301 292.7 301 270.2 301C247.7 301 225.3 301 202.8 301C180.3 301 157.7 301 135.2 301C112.7 301 90.3 301 67.8 301C45.3 301 22.7 301 11.3 301L0 301Z" fill="#ffffff" stroke-linecap="round" stroke-linejoin="miter"></path></svg>