<svg id="visual" viewBox="0 0 4000 600" width="4000" height="600" xmlns="http://www.w3.org/2000/svg" xmlns:xlink="http://www.w3.org/1999/xlink" version="1.1"><rect x="0" y="0" width="4000" height="600" fill="#f3f5f5"></rect><path d="M0 522L26.7 520C53.3 518 106.7 514 160 502.3C213.3 490.7 266.7 471.3 320 464.2C373.3 457 426.7 462 480 450.5C533.3 439 586.7 411 640 393.7C693.3 376.3 746.7 369.7 800 371C853.3 372.3 906.7 381.7 960 400.2C1013.3 418.7 1066.7 446.3 1120 462.5C1173.3 478.7 1226.7 483.3 1280 480.7C1333.3 478 1386.7 468 1440 474.2C1493.3 480.3 1546.7 502.7 1600 501.8C1653.3 501 1706.7 477 1760 465.8C1813.3 454.7 1866.7 456.3 1920 446C1973.3 435.7 2026.7 413.3 2080 418.2C2133.3 423 2186.7 455 2240 455.2C2293.3 455.3 2346.7 423.7 2400 427.2C2453.3 430.7 2506.7 469.3 2560 470.5C2613.3 471.7 2666.7 435.3 2720 411.8C2773.3 388.3 2826.7 377.7 2880 400.5C2933.3 423.3 2986.7 479.7 3040 502.5C3093.3 525.3 3146.7 514.7 3200 493.8C3253.3 473 3306.7 442 3360 420C3413.3 398 3466.7 385 3520 398.5C3573.3 412 3626.7 452 3680 464.7C3733.3 477.3 3786.7 462.7 3840 468.7C3893.3 474.7 3946.7 501.3 3973.3 514.7L4000 528L4000 601L3973.3 601C3946.7 601 3893.3 601 3840 601C3786.7 601 3733.3 601 3680 601C3626.7 601 3573.3 601 3520 601C3466.7 601 3413.3 601 3360 601C3306.7 601 3253.3 601 3200 601C3146.7 601 3093.3 601 3040 601C2986.7 601 2933.3 601 2880 601C2826.7 601 2773.3 601 2720 601C2666.7 601 2613.3 601 2560 601C2506.7 601 2453.3 601 2400 601C2346.7 601 2293.3 601 2240 601C2186.7 601 2133.3 601 2080 601C2026.7 601 1973.3 601 1920 601C1866.7 601 1813.3 601 1760 601C1706.7 601 1653.3 601 1600 601C1546.7 601 1493.3 601 1440 601C1386.7 601 1333.3 601 1280 601C1226.7 601 1173.3 601 1120 601C1066.7 601 1013.3 601 960 601C906.7 601 853.3 601 800 601C746.7 601 693.3 601 640 601C586.7 601 533.3 601 480 601C426.7 601 373.3 601 320 601C266.7 601 213.3 601 160 601C106.7 601 53.3 601 26.7 601L0 601Z" fill="#ffffff" stroke-linecap="round" stroke-linejoin="miter"></path></svg>