<svg id="visual" viewBox="0 0 960 300" width="960" height="300" xmlns="http://www.w3.org/2000/svg" xmlns:xlink="http://www.w3.org/1999/xlink" version="1.1"><rect x="0" y="0" width="960" height="300" fill="#f3f5f5"></rect><path d="M0 218L10 218.7C20 219.3 40 220.7 60 228.2C80 235.7 100 249.3 120 252.3C140 255.3 160 247.7 180 244C200 240.3 220 240.7 240 245.2C260 249.7 280 258.3 300 254.2C320 250 340 233 360 230C380 227 400 238 420 246.3C440 254.7 460 260.3 480 253.7C500 247 520 228 540 219.3C560 210.7 580 212.3 600 216.7C620 221 640 228 660 233C680 238 700 241 720 245C740 249 760 254 780 256.5C800 259 820 259 840 253.3C860 247.7 880 236.3 900 229C920 221.7 940 218.3 950 216.7L960 215L960 301L950 301C940 301 920 301 900 301C880 301 860 301 840 301C820 301 800 301 780 301C760 301 740 301 720 301C700 301 680 301 660 301C640 301 620 301 600 301C580 301 560 301 540 301C520 301 500 301 480 301C460 301 440 301 420 301C400 301 380 301 360 301C340 301 320 301 300 301C280 301 260 301 240 301C220 301 200 301 180 301C160 301 140 301 120 301C100 301 80 301 60 301C40 301 20 301 10 301L0 301Z" fill="#ffffff" stroke-linecap="round" stroke-linejoin="miter"></path></svg>